<svg width="90" height="35" viewBox="0 0 90 35" fill="none" xmlns="http://www.w3.org/2000/svg">
<rect x="13.8761" y="11.8955" width="17.8328" height="4.80392" fill="#21E6C1"/>
<rect x="27.1399" y="16.6995" width="4.56965" height="18.3007" fill="#21E6C1"/>
<rect x="58.4581" y="11.8955" width="17.8328" height="4.80392" fill="#21E6C1"/>
<rect x="58.4581" y="16.6995" width="4.4582" height="18.3007" fill="#21E6C1"/>
<rect x="27.1399" y="30.5393" width="31.3188" height="4.46078" fill="#21E6C1"/>
<path d="M9.00348e-05 14.3545C0.409659 3.38959 11.845 -3.28146 22.7369 1.83002V8.5212C15.3694 3.02998 6.35894 6.86996 5.57283 14.3545C6.44048 22.3949 15.6418 25.6693 22.7369 20.3594V27.165C10.8724 32.2381 -0.0361483 24.0205 9.00348e-05 14.3545Z" fill="#21E6C1"/>
<path d="M33.4926 14.2732C33.9022 3.30829 45.3375 -3.36276 56.2294 1.74872V8.4399C48.862 2.94868 39.8515 6.78866 39.0654 14.2732C39.933 22.3136 49.1343 25.588 56.2294 20.2781V27.0837C44.3649 32.1568 33.4564 23.9392 33.4926 14.2732Z" fill="#21E6C1"/>
<path d="M89.9999 14.4721C89.5903 25.4371 78.155 32.1081 67.2631 26.9966V20.3055C74.6306 25.7967 83.6411 21.9567 84.4272 14.4721C83.5595 6.43175 74.3582 3.15734 67.2631 8.46723V1.66167C79.1276 -3.41148 90.0361 4.8062 89.9999 14.4721Z" fill="#21E6C1"/>
</svg>
