<svg width="100" height="100" viewBox="0 0 100 100" fill="none" xmlns="http://www.w3.org/2000/svg">
<path d="M46.875 15.625V6.25C46.875 5.4212 47.2042 4.62634 47.7903 4.04029C48.3763 3.45424 49.1712 3.125 50 3.125C50.8288 3.125 51.6237 3.45424 52.2097 4.04029C52.7958 4.62634 53.125 5.4212 53.125 6.25V15.625C53.125 16.4538 52.7958 17.2487 52.2097 17.8347C51.6237 18.4208 50.8288 18.75 50 18.75C49.1712 18.75 48.3763 18.4208 47.7903 17.8347C47.2042 17.2487 46.875 16.4538 46.875 15.625ZM50 25C45.0555 25 40.222 26.4662 36.1107 29.2133C31.9995 31.9603 28.7952 35.8648 26.903 40.4329C25.0108 45.0011 24.5157 50.0277 25.4804 54.8773C26.445 59.7268 28.826 64.1814 32.3223 67.6777C35.8186 71.174 40.2732 73.555 45.1227 74.5196C49.9723 75.4843 54.9989 74.9892 59.5671 73.097C64.1352 71.2048 68.0397 68.0005 70.7867 63.8893C73.5338 59.778 75 54.9445 75 50C74.9928 43.3718 72.3565 37.0172 67.6697 32.3303C62.9828 27.6435 56.6282 25.0072 50 25ZM22.7891 27.2109C23.3754 27.7973 24.1707 28.1267 25 28.1267C25.8293 28.1267 26.6246 27.7973 27.2109 27.2109C27.7973 26.6246 28.1267 25.8293 28.1267 25C28.1267 24.1707 27.7973 23.3754 27.2109 22.7891L20.9609 16.5391C20.3746 15.9527 19.5793 15.6233 18.75 15.6233C17.9207 15.6233 17.1254 15.9527 16.5391 16.5391C15.9527 17.1254 15.6233 17.9207 15.6233 18.75C15.6233 19.5793 15.9527 20.3746 16.5391 20.9609L22.7891 27.2109ZM22.7891 72.7891L16.5391 79.0391C15.9527 79.6254 15.6233 80.4207 15.6233 81.25C15.6233 82.0793 15.9527 82.8746 16.5391 83.4609C17.1254 84.0473 17.9207 84.3767 18.75 84.3767C19.5793 84.3767 20.3746 84.0473 20.9609 83.4609L27.2109 77.2109C27.5013 76.9206 27.7316 76.5759 27.8887 76.1966C28.0459 75.8172 28.1267 75.4106 28.1267 75C28.1267 74.5894 28.0459 74.1828 27.8887 73.8034C27.7316 73.4241 27.5013 73.0794 27.2109 72.7891C26.9206 72.4987 26.5759 72.2684 26.1966 72.1113C25.8172 71.9541 25.4106 71.8733 25 71.8733C24.5894 71.8733 24.1828 71.9541 23.8034 72.1113C23.4241 72.2684 23.0794 72.4987 22.7891 72.7891ZM75 28.125C75.4105 28.1253 75.817 28.0448 76.1964 27.8879C76.5758 27.7311 76.9205 27.501 77.2109 27.2109L83.4609 20.9609C84.0473 20.3746 84.3767 19.5793 84.3767 18.75C84.3767 17.9207 84.0473 17.1254 83.4609 16.5391C82.8746 15.9527 82.0793 15.6233 81.25 15.6233C80.4207 15.6233 79.6254 15.9527 79.0391 16.5391L72.7891 22.7891C72.3515 23.2261 72.0535 23.7832 71.9327 24.3897C71.8119 24.9962 71.8738 25.6249 72.1106 26.1962C72.3473 26.7675 72.7482 27.2558 73.2626 27.5991C73.7769 27.9425 74.3816 28.1255 75 28.125ZM77.2109 72.7891C76.6246 72.2027 75.8293 71.8733 75 71.8733C74.1707 71.8733 73.3754 72.2027 72.7891 72.7891C72.2027 73.3754 71.8733 74.1707 71.8733 75C71.8733 75.8293 72.2027 76.6246 72.7891 77.2109L79.0391 83.4609C79.3294 83.7513 79.6741 83.9816 80.0534 84.1387C80.4328 84.2959 80.8394 84.3767 81.25 84.3767C81.6606 84.3767 82.0672 84.2959 82.4466 84.1387C82.8259 83.9816 83.1706 83.7513 83.4609 83.4609C83.7513 83.1706 83.9816 82.8259 84.1387 82.4466C84.2959 82.0672 84.3767 81.6606 84.3767 81.25C84.3767 80.8394 84.2959 80.4328 84.1387 80.0534C83.9816 79.6741 83.7513 79.3294 83.4609 79.0391L77.2109 72.7891ZM18.75 50C18.75 49.1712 18.4208 48.3763 17.8347 47.7903C17.2487 47.2042 16.4538 46.875 15.625 46.875H6.25C5.4212 46.875 4.62634 47.2042 4.04029 47.7903C3.45424 48.3763 3.125 49.1712 3.125 50C3.125 50.8288 3.45424 51.6237 4.04029 52.2097C4.62634 52.7958 5.4212 53.125 6.25 53.125H15.625C16.4538 53.125 17.2487 52.7958 17.8347 52.2097C18.4208 51.6237 18.75 50.8288 18.75 50ZM50 81.25C49.1712 81.25 48.3763 81.5792 47.7903 82.1653C47.2042 82.7513 46.875 83.5462 46.875 84.375V93.75C46.875 94.5788 47.2042 95.3737 47.7903 95.9597C48.3763 96.5458 49.1712 96.875 50 96.875C50.8288 96.875 51.6237 96.5458 52.2097 95.9597C52.7958 95.3737 53.125 94.5788 53.125 93.75V84.375C53.125 83.5462 52.7958 82.7513 52.2097 82.1653C51.6237 81.5792 50.8288 81.25 50 81.25ZM93.75 46.875H84.375C83.5462 46.875 82.7513 47.2042 82.1653 47.7903C81.5792 48.3763 81.25 49.1712 81.25 50C81.25 50.8288 81.5792 51.6237 82.1653 52.2097C82.7513 52.7958 83.5462 53.125 84.375 53.125H93.75C94.5788 53.125 95.3737 52.7958 95.9597 52.2097C96.5458 51.6237 96.875 50.8288 96.875 50C96.875 49.1712 96.5458 48.3763 95.9597 47.7903C95.3737 47.2042 94.5788 46.875 93.75 46.875Z" fill="#EAB839" />
</svg>
