<svg width="234" height="134" viewBox="0 0 234 134" fill="none" xmlns="http://www.w3.org/2000/svg">
<ellipse cx="205.829" cy="26.2888" rx="5.27211" ry="4.55963" fill="#FDFDFD"/>
<ellipse cx="179.468" cy="26.2888" rx="5.27211" ry="4.55963" fill="#FDFDFD"/>
<ellipse cx="153.108" cy="26.2888" rx="5.27211" ry="4.55963" fill="#FDFDFD"/>
<ellipse cx="126.747" cy="26.2888" rx="5.27211" ry="4.55963" fill="#FDFDFD"/>
<ellipse cx="104.341" cy="26.2888" rx="5.27211" ry="4.55963" fill="#FDFDFD"/>
<ellipse cx="77.9803" cy="26.2888" rx="5.27211" ry="4.55963" fill="#FDFDFD"/>
<ellipse cx="51.6198" cy="26.2888" rx="5.27211" ry="4.55963" fill="#FDFDFD"/>
<ellipse cx="25.2594" cy="26.2888" rx="5.27211" ry="4.55963" fill="#FDFDFD"/>
<ellipse cx="205.829" cy="46.8071" rx="5.27211" ry="4.55963" fill="#FDFDFD"/>
<ellipse cx="179.468" cy="46.8071" rx="5.27211" ry="4.55963" fill="#FDFDFD"/>
<ellipse cx="153.108" cy="46.8071" rx="5.27211" ry="4.55963" fill="#FDFDFD"/>
<ellipse cx="126.747" cy="46.8071" rx="5.27211" ry="4.55963" fill="#FDFDFD"/>
<ellipse cx="104.341" cy="46.8071" rx="5.27211" ry="4.55963" fill="#FDFDFD"/>
<ellipse cx="77.9803" cy="46.8071" rx="5.27211" ry="4.55963" fill="#FDFDFD"/>
<ellipse cx="51.6198" cy="46.8071" rx="5.27211" ry="4.55963" fill="#FDFDFD"/>
<ellipse cx="25.2593" cy="46.8071" rx="5.27211" ry="4.55963" fill="#FDFDFD"/>
<ellipse cx="205.829" cy="66.1855" rx="5.27211" ry="4.55963" fill="#FDFDFD"/>
<ellipse cx="179.468" cy="66.1855" rx="5.27211" ry="4.55963" fill="#FDFDFD"/>
<ellipse cx="153.108" cy="66.1855" rx="5.27211" ry="4.55963" fill="#FDFDFD"/>
<ellipse cx="126.747" cy="66.1855" rx="5.27211" ry="4.55963" fill="#FDFDFD"/>
<ellipse cx="104.341" cy="66.1855" rx="5.27211" ry="4.55963" fill="#FDFDFD"/>
<ellipse cx="77.9803" cy="66.1855" rx="5.27211" ry="4.55963" fill="#FDFDFD"/>
<ellipse cx="51.6198" cy="66.1855" rx="5.27211" ry="4.55963" fill="#FDFDFD"/>
<ellipse cx="25.2593" cy="66.1855" rx="5.27211" ry="4.55963" fill="#FDFDFD"/>
<ellipse cx="205.829" cy="85.564" rx="5.27211" ry="4.55963" fill="#FDFDFD"/>
<ellipse cx="179.468" cy="85.564" rx="5.27211" ry="4.55963" fill="#FDFDFD"/>
<ellipse cx="153.108" cy="85.564" rx="5.27211" ry="4.55963" fill="#FDFDFD"/>
<ellipse cx="126.747" cy="85.564" rx="5.27211" ry="4.55963" fill="#FDFDFD"/>
<ellipse cx="104.341" cy="85.564" rx="5.27211" ry="4.55963" fill="#FDFDFD"/>
<ellipse cx="77.9803" cy="85.564" rx="5.27211" ry="4.55963" fill="#FDFDFD"/>
<ellipse cx="51.6198" cy="85.564" rx="5.27211" ry="4.55963" fill="#FDFDFD"/>
<ellipse cx="25.2593" cy="85.564" rx="5.27211" ry="4.55963" fill="#FDFDFD"/>
<ellipse cx="205.829" cy="104.942" rx="5.27211" ry="4.55963" fill="#FDFDFD"/>
<ellipse cx="179.468" cy="104.942" rx="5.27211" ry="4.55963" fill="#FDFDFD"/>
<ellipse cx="153.108" cy="104.942" rx="5.27211" ry="4.55963" fill="#FDFDFD"/>
<ellipse cx="51.6198" cy="104.942" rx="5.27211" ry="4.55963" fill="#FDFDFD"/>
<ellipse cx="25.2593" cy="104.942" rx="5.27211" ry="4.55963" fill="#FDFDFD"/>
<path d="M90.8118 4.7704C123.8 2.13871 235.834 -7.76861 231.899 37.2578" stroke="#F2F2F2" stroke-width="3" stroke-linecap="round"/>
<path d="M143.188 129.59C110.2 132.222 -1.83369 142.129 2.10101 97.1031" stroke="#F2F2F2" stroke-width="3" stroke-linecap="round"/>
<path d="M77.3214 103.942H129.597" stroke="#F2F2F2" stroke-width="8" stroke-linecap="round"/>
</svg>
